<?xml version="1.0" encoding="UTF-8"?>
<svg viewBox="0 0 459.67 255.67" xmlns="http://www.w3.org/2000/svg">
<metadata>image/svg+xml</metadata>
<defs>
<clipPath id="a">
<path d="m0 800h800v-800h-800v800z"/>
</clipPath>
</defs>
<g>
<title>background</title>
<rect x="-1" y="-1" width="461.67" height="257.67" fill="none"/>
</g>
<g>
<title>Layer 1</title>
<g transform="matrix(1.3333 0 0 -1.3333 0 1066.7)" clip-path="url(#a)">
<path d="m280.92 29.523c0-0.703 0.109-1.301 0.328-1.795 0.218-0.494 0.517-0.866 0.897-1.115 0.38-0.251 0.795-0.377 1.244-0.377 0.456 0 0.872 0.119 1.25 0.357 0.376 0.237 0.677 0.602 0.902 1.091 0.225 0.491 0.337 1.106 0.337 1.839 0 0.69-0.112 1.284-0.337 1.782-0.225 0.496-0.529 0.876-0.912 1.14-0.383 0.262-0.803 0.392-1.258 0.392-0.475 0-0.899-0.134-1.273-0.403-0.374-0.268-0.663-0.654-0.869-1.158s-0.309-1.088-0.309-1.753m5.101-3.809v0.257c-0.349-0.398-0.692-0.723-1.031-0.972-0.339-0.251-0.706-0.442-1.102-0.571-0.396-0.132-0.827-0.195-1.296-0.195-0.621 0-1.196 0.131-1.725 0.394-0.528 0.262-0.986 0.638-1.371 1.125-0.388 0.488-0.68 1.06-0.879 1.719-0.2 0.659-0.3 1.371-0.3 2.137 0 1.621 0.396 2.886 1.188 3.791 0.791 0.904 1.833 1.357 3.125 1.357 0.747 0 1.377-0.129 1.89-0.383 0.513-0.257 1.013-0.653 1.501-1.183v3.827c0 0.532 0.105 0.934 0.318 1.206 0.211 0.273 0.514 0.408 0.907 0.408 0.392 0 0.694-0.125 0.906-0.375 0.213-0.251 0.319-0.618 0.319-1.106v-11.436c0-0.494-0.114-0.864-0.342-1.111-0.228-0.246-0.522-0.37-0.883-0.37-0.355 0-0.648 0.128-0.879 0.384-0.231 0.258-0.346 0.623-0.346 1.097" fill="#fff"/>
<path d="m292.39 30.34h4.702c-0.063 0.887-0.304 1.551-0.718 1.99-0.415 0.441-0.96 0.66-1.638 0.66-0.646 0-1.177-0.222-1.591-0.668-0.415-0.447-0.666-1.108-0.755-1.982m5.071-1.473h-5.071c6e-3 -0.588 0.124-1.107 0.356-1.556 0.231-0.45 0.539-0.789 0.921-1.017 0.384-0.228 0.806-0.341 1.268-0.341 0.31 0 0.594 0.035 0.85 0.108 0.257 0.074 0.505 0.186 0.747 0.343 0.24 0.154 0.461 0.321 0.664 0.498 0.202 0.178 0.464 0.42 0.788 0.723 0.133 0.113 0.323 0.171 0.571 0.171 0.266 0 0.48-0.074 0.644-0.22 0.165-0.146 0.249-0.35 0.249-0.617 0-0.234-0.093-0.507-0.276-0.821-0.185-0.314-0.462-0.614-0.831-0.902-0.372-0.289-0.836-0.527-1.397-0.717-0.56-0.191-1.204-0.285-1.933-0.285-1.665 0-2.96 0.475-3.884 1.424-0.925 0.95-1.387 2.239-1.387 3.866 0 0.766 0.114 1.477 0.342 2.132 0.228 0.656 0.561 1.217 0.997 1.686 0.437 0.469 0.975 0.827 1.615 1.078 0.639 0.25 1.349 0.374 2.128 0.374 1.012 0 1.881-0.212 2.606-0.64 0.726-0.427 1.269-0.98 1.629-1.657s0.542-1.369 0.542-2.07c0-0.653-0.187-1.075-0.56-1.27-0.373-0.192-0.9-0.29-1.578-0.29" fill="#fff"/>
<path d="m309.27 27.625c0-0.716-0.173-1.329-0.523-1.839-0.347-0.51-0.862-0.896-1.543-1.159-0.68-0.263-1.508-0.394-2.483-0.394-0.931 0-1.729 0.143-2.394 0.428-0.664 0.284-1.156 0.642-1.472 1.068-0.317 0.428-0.475 0.856-0.475 1.288 0 0.285 0.101 0.528 0.304 0.73s0.459 0.304 0.77 0.304c0.272 0 0.48-0.067 0.626-0.199 0.146-0.133 0.286-0.321 0.417-0.56 0.267-0.464 0.586-0.807 0.956-1.036 0.37-0.228 0.875-0.342 1.515-0.342 0.519 0 0.945 0.116 1.278 0.347 0.332 0.232 0.498 0.496 0.498 0.794 0 0.456-0.172 0.787-0.518 0.996-0.345 0.209-0.914 0.409-1.705 0.599-0.893 0.221-1.619 0.455-2.18 0.699-0.56 0.242-1.008 0.564-1.344 0.963-0.335 0.399-0.503 0.89-0.503 1.472 0 0.519 0.155 1.01 0.465 1.473 0.311 0.461 0.768 0.83 1.374 1.105 0.603 0.277 1.333 0.414 2.188 0.414 0.671 0 1.275-0.069 1.809-0.21 0.536-0.137 0.983-0.326 1.34-0.56 0.358-0.233 0.63-0.493 0.816-0.777 0.187-0.286 0.28-0.564 0.28-0.837 0-0.297-0.1-0.541-0.298-0.732-0.2-0.188-0.483-0.285-0.851-0.285-0.266 0-0.492 0.076-0.679 0.23-0.186 0.151-0.4 0.378-0.641 0.682-0.196 0.253-0.426 0.456-0.693 0.609-0.266 0.152-0.627 0.227-1.083 0.227-0.469 0-0.858-0.099-1.168-0.3-0.31-0.198-0.465-0.446-0.465-0.744 0-0.273 0.113-0.496 0.341-0.67 0.229-0.175 0.535-0.319 0.922-0.432 0.387-0.114 0.917-0.252 1.596-0.417 0.803-0.198 1.46-0.432 1.97-0.704 0.509-0.271 0.896-0.593 1.16-0.964 0.262-0.371 0.393-0.792 0.393-1.267" fill="#fff"/>
<path d="m313.2 33.304v-7.493c0-0.52-0.124-0.913-0.371-1.179s-0.56-0.398-0.94-0.398-0.689 0.135-0.926 0.408c-0.238 0.272-0.356 0.662-0.356 1.169v7.418c0 0.512 0.118 0.898 0.356 1.158 0.237 0.26 0.546 0.39 0.926 0.39s0.693-0.13 0.94-0.39 0.371-0.621 0.371-1.083m-1.283 2.678c-0.36 0-0.669 0.111-0.925 0.333-0.257 0.22-0.385 0.534-0.385 0.94 0 0.368 0.131 0.669 0.394 0.907 0.263 0.239 0.569 0.357 0.916 0.357 0.336 0 0.634-0.108 0.893-0.323 0.26-0.216 0.39-0.529 0.39-0.941 0-0.399-0.127-0.711-0.381-0.935-0.253-0.225-0.553-0.338-0.902-0.338" fill="#fff"/>
<path d="m317.05 29.59c0-1.051 0.229-1.846 0.688-2.384 0.459-0.539 1.053-0.807 1.781-0.807 0.43 0 0.837 0.116 1.22 0.346 0.384 0.232 0.695 0.58 0.937 1.045 0.239 0.466 0.36 1.03 0.36 1.696 0 1.056-0.232 1.88-0.698 2.468-0.466 0.589-1.078 0.884-1.838 0.884-0.742 0-1.335-0.282-1.781-0.846-0.446-0.562-0.669-1.364-0.669-2.402m7.513 3.286v-7.531c0-0.861-0.093-1.603-0.277-2.224-0.182-0.619-0.477-1.133-0.882-1.538-0.406-0.404-0.936-0.706-1.591-0.901-0.655-0.197-1.47-0.295-2.446-0.295-0.893 0-1.691 0.125-2.394 0.375-0.702 0.251-1.243 0.573-1.624 0.969-0.379 0.395-0.57 0.802-0.57 1.22 0 0.317 0.108 0.576 0.324 0.774 0.215 0.2 0.475 0.3 0.778 0.3 0.38 0 0.713-0.168 0.998-0.503 0.138-0.171 0.282-0.345 0.431-0.519 0.149-0.175 0.315-0.323 0.494-0.447 0.181-0.122 0.398-0.214 0.651-0.275 0.253-0.058 0.545-0.089 0.874-0.089 0.671 0 1.192 0.092 1.563 0.28 0.37 0.186 0.63 0.448 0.779 0.784 0.149 0.334 0.236 0.693 0.261 1.077s0.044 0.999 0.057 1.849c-0.4-0.559-0.859-0.984-1.383-1.275-0.522-0.291-1.144-0.436-1.866-0.436-0.867 0-1.625 0.222-2.275 0.665-0.648 0.443-1.147 1.063-1.495 1.861-0.349 0.799-0.522 1.719-0.522 2.764 0 0.778 0.105 1.482 0.317 2.108 0.213 0.628 0.515 1.157 0.908 1.587 0.392 0.431 0.845 0.755 1.357 0.974 0.513 0.218 1.077 0.327 1.691 0.327 0.734 0 1.371-0.142 1.91-0.422 0.537-0.283 1.038-0.724 1.5-1.326v0.352c0 0.45 0.11 0.797 0.332 1.045 0.222 0.246 0.507 0.371 0.856 0.371 0.5 0 0.832-0.164 0.996-0.49 0.165-0.326 0.248-0.797 0.248-1.411" fill="#fff"/>
<path d="m328.68 33.342v-0.313c0.455 0.601 0.954 1.043 1.496 1.325 0.541 0.281 1.163 0.423 1.866 0.423 0.68401 0 1.295-0.15 1.833-0.448s0.94099-0.718 1.206-1.261c0.172-0.318 0.282-0.661 0.332-1.027 0.051-0.368 0.078-0.836 0.078-1.406v-4.824c0-0.52-0.12001-0.913-0.35701-1.179-0.238-0.266-0.546-0.398-0.926-0.398-0.387 0-0.7 0.135-0.94099 0.408-0.241 0.272-0.36 0.662-0.36 1.169v4.321c0 0.855-0.12001 1.509-0.35701 1.961-0.238 0.452-0.71 0.68-1.42 0.68-0.462 0-0.883-0.138-1.263-0.413-0.38-0.277-0.659-0.656-0.836-1.136-0.126-0.387-0.19-1.108-0.19-2.165v-3.248c0-0.526-0.122-0.921-0.365-1.184-0.244-0.263-0.559-0.393-0.945-0.393-0.374 0-0.681 0.135-0.922 0.408-0.24 0.272-0.361 0.662-0.361 1.169v7.493c0 0.494 0.108 0.863 0.323 1.107 0.216 0.243 0.51 0.366 0.883 0.366 0.229 0 0.435-0.054 0.619-0.163 0.182-0.108 0.33-0.269 0.441-0.483 0.111-0.216 0.166-0.479 0.166-0.789" fill="#fff"/>
<path d="m339.39 30.34h4.701c-0.063 0.887-0.302 1.551-0.717 1.99-0.415 0.441-0.961 0.66-1.638 0.66-0.646 0-1.177-0.222-1.592-0.668-0.415-0.447-0.665-1.108-0.754-1.982m5.071-1.473h-5.071c7e-3 -0.588 0.125-1.107 0.356-1.556 0.231-0.45 0.538-0.789 0.922-1.017 0.382-0.228 0.805-0.341 1.267-0.341 0.31 0 0.594 0.035 0.851 0.108 0.255 0.074 0.504 0.186 0.746 0.343 0.239 0.154 0.461 0.321 0.665 0.498 0.201 0.178 0.464 0.42 0.787 0.723 0.133 0.113 0.323 0.171 0.57 0.171 0.266 0 0.482-0.074 0.646-0.22 0.165-0.146 0.247-0.35 0.247-0.617 0-0.234-0.092-0.507-0.276-0.821s-0.461-0.614-0.831-0.902c-0.371-0.289-0.835-0.527-1.396-0.717-0.56-0.191-1.205-0.285-1.933-0.285-1.665 0-2.96 0.475-3.885 1.424-0.924 0.95-1.386 2.239-1.386 3.866 0 0.766 0.114 1.477 0.341 2.132 0.228 0.656 0.562 1.217 0.998 1.686 0.437 0.469 0.976 0.827 1.615 1.078 0.639 0.25 1.349 0.374 2.128 0.374 1.012 0 1.88-0.212 2.606-0.64 0.725-0.427 1.268-0.98 1.629-1.657s0.542-1.369 0.542-2.07c0-0.653-0.187-1.075-0.561-1.27-0.373-0.192-0.898-0.29-1.577-0.29" fill="#fff"/>
<path d="m349.93 29.523c0-0.703 0.108-1.301 0.327-1.795s0.518-0.866 0.899-1.115c0.379-0.251 0.794-0.377 1.243-0.377 0.456 0 0.873 0.119 1.249 0.357 0.377 0.237 0.678 0.602 0.902 1.091 0.225 0.491 0.338 1.106 0.338 1.839 0 0.69-0.113 1.284-0.338 1.782-0.224 0.496-0.528 0.876-0.911 1.14-0.384 0.262-0.803 0.392-1.259 0.392-0.474 0-0.899-0.134-1.273-0.403-0.373-0.268-0.663-0.654-0.869-1.158s-0.308-1.088-0.308-1.753m5.1-3.809v0.257c-0.348-0.398-0.692-0.723-1.031-0.972-0.339-0.251-0.705-0.442-1.101-0.571-0.395-0.132-0.828-0.195-1.296-0.195-0.622 0-1.196 0.131-1.724 0.394-0.529 0.262-0.986 0.638-1.373 1.125-0.386 0.488-0.679 1.06-0.878 1.719-0.2 0.659-0.299 1.371-0.299 2.137 0 1.621 0.395 2.886 1.187 3.791 0.791 0.904 1.833 1.357 3.125 1.357 0.747 0 1.377-0.129 1.89-0.383 0.512-0.257 1.013-0.653 1.5-1.183v3.827c0 0.532 0.106 0.934 0.319 1.206 0.211 0.273 0.514 0.408 0.907 0.408 0.392 0 0.694-0.125 0.907-0.375 0.211-0.251 0.318-0.618 0.318-1.106v-11.436c0-0.494-0.114-0.864-0.342-1.111-0.228-0.246-0.522-0.37-0.883-0.37-0.355 0-0.648 0.128-0.879 0.384-0.232 0.258-0.347 0.623-0.347 1.097" fill="#fff"/>
<path d="m365.75 29.447c0-1.032 0.236-1.824 0.708-2.378 0.471-0.555 1.09-0.833 1.856-0.833 0.652 0 1.215 0.283 1.686 0.851 0.472 0.567 0.708 1.379 0.708 2.436 0 0.684-0.098 1.274-0.294 1.767-0.197 0.494-0.475 0.876-0.836 1.144-0.361 0.269-0.783 0.404-1.264 0.404-0.493 0-0.934-0.135-1.32-0.404-0.386-0.268-0.69-0.658-0.912-1.168-0.221-0.508-0.332-1.116-0.332-1.819m-0.124 7.703v-3.96c0.488 0.506 0.985 0.895 1.492 1.163 0.506 0.269 1.133 0.404 1.881 0.404 0.861 0 1.615-0.205 2.265-0.612 0.648-0.41 1.152-1.002 1.51-1.777 0.357-0.775 0.537-1.695 0.537-2.76 0-0.785-0.1-1.504-0.299-2.16-0.2-0.655-0.49-1.224-0.869-1.704-0.381-0.482-0.841-0.855-1.382-1.117-0.542-0.263-1.139-0.394-1.791-0.394-0.399 0-0.775 0.047-1.125 0.143-0.352 0.094-0.652 0.218-0.898 0.375-0.246 0.154-0.457 0.314-0.632 0.479-0.174 0.164-0.404 0.412-0.689 0.741v-0.256c0-0.488-0.117-0.857-0.351-1.108-0.233-0.25-0.531-0.374-0.893-0.374-0.367 0-0.66 0.124-0.878 0.374-0.219 0.251-0.328 0.62-0.328 1.108v11.322c0 0.525 0.106 0.923 0.318 1.191 0.212 0.269 0.509 0.404 0.888 0.404 0.4 0 0.706-0.128 0.922-0.384 0.215-0.258 0.322-0.622 0.322-1.098" fill="#fff"/>
<path d="m376.67 23.91l0.237 0.58-3.191 8.035c-0.196 0.461-0.295 0.798-0.295 1.007 0 0.222 0.058 0.427 0.171 0.616 0.115 0.191 0.271 0.343 0.47 0.456 0.2 0.116 0.407 0.172 0.623 0.172 0.373 0 0.654-0.119 0.845-0.356s0.358-0.577 0.503-1.021l2.195-6.382 2.08 5.936c0.164 0.48 0.313 0.857 0.446 1.13 0.133 0.272 0.273 0.456 0.422 0.55 0.149 0.095 0.36 0.143 0.632 0.143 0.197 0 0.385-0.051 0.566-0.157 0.18-0.104 0.319-0.245 0.417-0.423 0.098-0.177 0.148-0.363 0.148-0.559-0.026-0.12-0.066-0.291-0.124-0.514-0.058-0.221-0.126-0.447-0.209-0.674l-3.381-8.852c-0.292-0.779-0.577-1.389-0.855-1.832-0.279-0.444-0.647-0.786-1.107-1.022-0.459-0.238-1.078-0.356-1.857-0.356-0.759 0-1.329 0.082-1.708 0.246-0.382 0.166-0.571 0.466-0.571 0.903 0 0.297 0.09 0.527 0.271 0.688 0.18 0.162 0.448 0.244 0.802 0.244 0.139 0 0.276-0.02 0.409-0.059 0.164-0.037 0.307-0.057 0.427-0.057 0.297 0 0.532 0.044 0.703 0.134 0.171 0.088 0.324 0.241 0.461 0.461 0.135 0.217 0.293 0.539 0.47 0.963" fill="#fff"/>
<path d="m414.23 34.552h0.618v0.778c0 0.815 0.1 1.457 0.307 1.938 0.204 0.478 0.555 0.826 1.047 1.045 0.49 0.217 1.163 0.326 2.016 0.326 1.52 0 2.273-0.367 2.273-1.114 0-0.239-0.079-0.445-0.24-0.616-0.155-0.168-0.343-0.255-0.558-0.255-0.1 0-0.278 0.018-0.527 0.059-0.238 0.033-0.453 0.056-0.624 0.056-0.467 0-0.766-0.141-0.905-0.415-0.127-0.276-0.195-0.669-0.195-1.185v-0.617h0.633c0.991 0 1.481-0.297 1.481-0.895 0-0.419-0.127-0.691-0.392-0.805-0.262-0.114-0.624-0.171-1.089-0.171h-0.633v-6.871c0-0.511-0.12-0.901-0.369-1.168-0.241-0.273-0.554-0.406-0.943-0.406-0.367 0-0.671 0.133-0.918 0.406-0.244 0.267-0.364 0.657-0.364 1.168v6.871h-0.714c-0.388 0-0.682 0.084-0.893 0.262-0.209 0.171-0.315 0.399-0.315 0.677 0 0.624 0.435 0.932 1.304 0.932" fill="#fff"/>
<path d="m422.72 27.978v-2.168c0-0.523-0.133-0.919-0.374-1.18-0.247-0.265-0.559-0.394-0.937-0.394-0.382 0-0.688 0.131-0.927 0.4-0.237 0.264-0.361 0.656-0.361 1.174v7.223c0 1.166 0.42 1.749 1.261 1.749 0.434 0 0.743-0.135 0.934-0.409 0.189-0.273 0.295-0.673 0.317-1.208 0.308 0.535 0.624 0.935 0.948 1.208 0.332 0.274 0.763 0.409 1.31 0.409 0.549 0 1.072-0.135 1.585-0.409 0.516-0.273 0.771-0.636 0.771-1.084 0-0.315-0.11-0.581-0.326-0.782-0.22-0.209-0.454-0.311-0.706-0.311-0.099 0-0.331 0.062-0.692 0.179-0.365 0.114-0.689 0.173-0.963 0.173-0.38 0-0.692-0.102-0.932-0.298-0.242-0.205-0.43-0.497-0.564-0.886-0.129-0.395-0.219-0.866-0.273-1.405-0.048-0.542-0.071-1.203-0.071-1.981" fill="#fff"/>
<path d="m429.57 30.345h4.701c-0.062 0.885-0.298 1.55-0.714 1.986-0.418 0.443-0.959 0.66-1.64 0.66-0.646 0-1.177-0.219-1.592-0.668-0.414-0.447-0.668-1.105-0.755-1.978m5.074-1.475h-5.074c9e-3 -0.588 0.124-1.11 0.354-1.558 0.236-0.446 0.541-0.786 0.925-1.017 0.385-0.227 0.804-0.34 1.269-0.34 0.31 0 0.593 0.034 0.849 0.112 0.254 0.069 0.505 0.185 0.746 0.34 0.242 0.153 0.46 0.319 0.664 0.5 0.202 0.175 0.466 0.417 0.79 0.719 0.134 0.114 0.324 0.174 0.568 0.174 0.269 0 0.481-0.074 0.649-0.222 0.166-0.147 0.244-0.35 0.244-0.617 0-0.235-0.089-0.508-0.268-0.819-0.187-0.317-0.463-0.616-0.836-0.906-0.374-0.286-0.839-0.528-1.397-0.714-0.56-0.191-1.206-0.286-1.932-0.286-1.671 0-2.964 0.472-3.887 1.422-0.924 0.952-1.391 2.242-1.391 3.868 0 0.766 0.117 1.478 0.347 2.134 0.225 0.659 0.558 1.216 0.999 1.688 0.436 0.471 0.97 0.828 1.613 1.078 0.637 0.249 1.346 0.374 2.128 0.374 1.01 0 1.88-0.214 2.606-0.645 0.724-0.423 1.274-0.977 1.629-1.655 0.361-0.68 0.542-1.368 0.542-2.074 0-0.648-0.189-1.07-0.562-1.266-0.373-0.193-0.897-0.29-1.575-0.29" fill="#fff"/>
<path d="m440.36 30.345h4.701c-0.063 0.885-0.304 1.55-0.715 1.986-0.421 0.443-0.962 0.66-1.642 0.66-0.646 0-1.176-0.219-1.593-0.668-0.413-0.447-0.667-1.105-0.751-1.978m5.073-1.475h-5.073c6e-3 -0.588 0.125-1.11 0.355-1.558 0.231-0.446 0.538-0.786 0.92-1.017 0.383-0.227 0.806-0.34 1.272-0.34 0.308 0 0.593 0.034 0.845 0.112 0.258 0.069 0.505 0.185 0.75 0.34 0.242 0.153 0.46 0.319 0.664 0.5 0.199 0.175 0.464 0.417 0.788 0.719 0.135 0.114 0.326 0.174 0.568 0.174 0.269 0 0.484-0.074 0.65-0.222 0.166-0.147 0.241-0.35 0.241-0.617 0-0.235-0.087-0.508-0.274-0.819-0.176-0.317-0.455-0.616-0.83-0.906-0.37-0.286-0.84-0.528-1.395-0.714-0.558-0.191-1.208-0.286-1.935-0.286-1.667 0-2.959 0.472-3.887 1.422-0.923 0.952-1.388 2.242-1.388 3.868 0 0.766 0.116 1.478 0.347 2.134 0.227 0.659 0.559 1.216 0.997 1.688 0.435 0.471 0.972 0.828 1.614 1.078 0.637 0.249 1.35 0.374 2.129 0.374 1.008 0 1.878-0.214 2.613-0.645 0.72-0.423 1.266-0.977 1.621-1.655 0.359-0.68 0.545-1.368 0.545-2.074 0-0.648-0.192-1.07-0.562-1.266-0.375-0.193-0.899-0.29-1.575-0.29" fill="#fff"/>
<path d="m456.2 29.555c0 0.684-0.107 1.273-0.315 1.763-0.208 0.492-0.499 0.867-0.866 1.128-0.367 0.262-0.782 0.396-1.232 0.396-0.714 0-1.319-0.284-1.809-0.844-0.492-0.566-0.739-1.395-0.739-2.493 0-1.026 0.244-1.833 0.735-2.406 0.488-0.573 1.086-0.858 1.813-0.858 0.429 0 0.83 0.125 1.197 0.372 0.371 0.253 0.665 0.626 0.884 1.126 0.221 0.502 0.332 1.108 0.332 1.816m-5.084 3.768v-0.311c0.486 0.601 0.994 1.042 1.524 1.324 0.519 0.284 1.119 0.427 1.783 0.427 0.795 0 1.535-0.208 2.207-0.617 0.671-0.414 1.198-1.016 1.588-1.807 0.39-0.795 0.586-1.729 0.586-2.813 0-0.796-0.112-1.532-0.336-2.201-0.223-0.668-0.537-1.227-0.928-1.68-0.394-0.45-0.856-0.802-1.39-1.046-0.542-0.241-1.111-0.363-1.727-0.363-0.739 0-1.365 0.148-1.866 0.447-0.503 0.292-0.982 0.733-1.441 1.306v-3.893c0-1.136-0.416-1.71-1.244-1.71-0.49 0-0.809 0.146-0.972 0.439-0.151 0.299-0.233 0.724-0.233 1.291v11.194c0 0.495 0.106 0.859 0.32 1.107 0.215 0.24 0.512 0.365 0.885 0.365 0.369 0 0.666-0.125 0.895-0.375 0.236-0.253 0.349-0.61 0.349-1.084" fill="#fff"/>
<path d="m462.7 33.31v-7.502c0-0.516-0.124-0.908-0.37-1.172-0.25-0.269-0.561-0.4-0.941-0.4-0.381 0-0.685 0.133-0.928 0.406-0.234 0.276-0.356 0.665-0.356 1.166v7.428c0 0.51 0.122 0.894 0.356 1.154 0.243 0.265 0.547 0.392 0.928 0.392 0.38 0 0.691-0.127 0.941-0.392 0.246-0.26 0.37-0.622 0.37-1.08m-1.284 2.679c-0.363 0-0.669 0.114-0.923 0.335-0.26 0.222-0.388 0.532-0.388 0.936 0 0.368 0.131 0.67 0.397 0.91 0.262 0.235 0.566 0.356 0.914 0.356 0.34 0 0.636-0.107 0.893-0.32 0.26-0.218 0.391-0.534 0.391-0.946 0-0.399-0.127-0.711-0.378-0.935-0.254-0.222-0.555-0.336-0.906-0.336" fill="#fff"/>
<path d="m471.06 25.419l-2.284 3.766-1.408-1.328v-2.066c0-0.499-0.133-0.882-0.397-1.149-0.257-0.273-0.566-0.407-0.906-0.407-0.399 0-0.715 0.131-0.941 0.401-0.226 0.263-0.343 0.656-0.343 1.174v11.063c0 0.573 0.114 1.011 0.331 1.314 0.222 0.304 0.545 0.452 0.953 0.452 0.399 0 0.713-0.137 0.949-0.411 0.234-0.271 0.354-0.674 0.354-1.202v-6.293l2.916 3.062c0.362 0.376 0.632 0.641 0.827 0.778 0.189 0.139 0.419 0.208 0.689 0.208 0.326 0 0.594-0.103 0.816-0.308 0.211-0.206 0.32-0.466 0.32-0.774 0-0.379-0.354-0.888-1.055-1.521l-1.377-1.263 2.659-4.182c0.194-0.314 0.339-0.544 0.424-0.707 0.084-0.159 0.13-0.319 0.13-0.461 0-0.414-0.114-0.735-0.341-0.976-0.224-0.236-0.523-0.354-0.885-0.354-0.317 0-0.564 0.082-0.734 0.256-0.17 0.173-0.407 0.484-0.697 0.928" fill="#fff"/>
<path d="m476.69 24.235c-0.392 0-0.728 0.126-1.014 0.381-0.284 0.249-0.428 0.605-0.428 1.064 0 0.386 0.137 0.719 0.41 0.995 0.274 0.28 0.607 0.419 1.008 0.419 0.397 0 0.735-0.139 1.022-0.412 0.279-0.275 0.422-0.612 0.422-1.002 0-0.452-0.143-0.807-0.422-1.059-0.287-0.26-0.619-0.386-0.998-0.386" fill="#fff"/>
<path d="m489.59 27.445c0-0.32-0.097-0.668-0.291-1.034-0.191-0.37-0.488-0.718-0.886-1.05-0.394-0.332-0.891-0.602-1.495-0.804-0.6-0.202-1.28-0.306-2.03-0.306-1.607 0-2.858 0.469-3.758 1.401-0.895 0.936-1.346 2.189-1.346 3.76 0 1.067 0.204 2.006 0.62 2.824 0.407 0.814 1.003 1.447 1.781 1.894 0.779 0.448 1.716 0.67 2.794 0.67 0.673 0 1.288-0.098 1.852-0.295 0.561-0.196 1.032-0.452 1.425-0.759 0.387-0.315 0.686-0.644 0.89-0.992 0.207-0.352 0.307-0.681 0.307-0.988s-0.113-0.571-0.342-0.787c-0.236-0.215-0.516-0.324-0.839-0.324-0.219 0-0.398 0.057-0.541 0.166-0.144 0.112-0.305 0.29-0.479 0.542-0.317 0.478-0.646 0.842-0.996 1.079-0.343 0.243-0.78 0.362-1.313 0.362-0.762 0-1.384-0.297-1.854-0.897-0.468-0.596-0.703-1.42-0.703-2.454 0-0.488 0.062-0.94 0.183-1.348 0.117-0.407 0.291-0.756 0.52-1.044 0.23-0.287 0.504-0.505 0.826-0.654 0.324-0.153 0.681-0.226 1.064-0.226 0.521 0 0.966 0.12 1.337 0.361 0.376 0.241 0.702 0.607 0.986 1.102 0.158 0.291 0.327 0.518 0.509 0.684 0.182 0.163 0.409 0.249 0.675 0.249 0.317 0 0.581-0.123 0.787-0.362 0.211-0.241 0.317-0.499 0.317-0.77" fill="#fff"/>
<path d="m498.18 29.506c0 1.059-0.234 1.881-0.698 2.469-0.463 0.595-1.09 0.888-1.874 0.888-0.508 0-0.955-0.132-1.343-0.394-0.387-0.262-0.681-0.649-0.89-1.164-0.209-0.514-0.315-1.113-0.315-1.799 0-0.679 0.102-1.268 0.309-1.773 0.208-0.511 0.502-0.898 0.886-1.166 0.386-0.267 0.835-0.405 1.353-0.405 0.784 0 1.411 0.296 1.874 0.892 0.464 0.591 0.698 1.411 0.698 2.452m2.604 0c0-0.77-0.123-1.484-0.356-2.139-0.247-0.652-0.592-1.213-1.05-1.678-0.455-0.469-1.002-0.828-1.632-1.08-0.639-0.248-1.349-0.375-2.138-0.375-0.785 0-1.493 0.127-2.121 0.382-0.623 0.249-1.171 0.615-1.626 1.082-0.461 0.477-0.809 1.035-1.052 1.677-0.23 0.644-0.351 1.355-0.351 2.131 0 0.786 0.124 1.506 0.359 2.158 0.242 0.655 0.589 1.212 1.039 1.673 0.451 0.462 0.993 0.817 1.631 1.07 0.643 0.249 1.349 0.374 2.121 0.374 0.784 0 1.498-0.125 2.138-0.381 0.638-0.251 1.183-0.615 1.644-1.08 0.458-0.474 0.803-1.029 1.04-1.671 0.233-0.652 0.354-1.361 0.354-2.143" fill="#fff"/>
<path d="m510.67 29.315v-3.446c0-0.547-0.12-0.951-0.369-1.228-0.25-0.272-0.571-0.408-0.978-0.408-0.392 0-0.714 0.136-0.951 0.408-0.247 0.277-0.372 0.681-0.372 1.228v4.131c0 0.653-0.02 1.162-0.063 1.524-0.046 0.354-0.168 0.655-0.363 0.883-0.196 0.235-0.508 0.351-0.93 0.351-0.851 0-1.408-0.29-1.677-0.88-0.268-0.577-0.406-1.414-0.406-2.507v-3.502c0-0.538-0.123-0.947-0.362-1.224-0.249-0.273-0.567-0.412-0.965-0.412-0.395 0-0.716 0.139-0.966 0.412-0.252 0.277-0.376 0.686-0.376 1.224v7.419c0 0.489 0.111 0.86 0.335 1.111 0.229 0.257 0.526 0.382 0.889 0.382 0.357 0 0.652-0.123 0.892-0.356 0.236-0.238 0.354-0.566 0.354-0.984v-0.245c0.454 0.535 0.935 0.931 1.445 1.181 0.516 0.259 1.082 0.385 1.713 0.385 0.651 0 1.211-0.131 1.677-0.389 0.47-0.261 0.854-0.656 1.161-1.177 0.439 0.528 0.909 0.923 1.41 1.181 0.5 0.256 1.052 0.385 1.662 0.385 0.706 0 1.321-0.142 1.834-0.419 0.51-0.278 0.892-0.679 1.147-1.195 0.221-0.473 0.33-1.21 0.33-2.217v-5.062c0-0.547-0.122-0.951-0.367-1.228-0.246-0.272-0.575-0.408-0.979-0.408-0.395 0-0.714 0.139-0.965 0.412-0.25 0.277-0.376 0.686-0.376 1.224v4.361c0 0.559-0.024 1.003-0.07 1.338-0.046 0.337-0.176 0.62-0.382 0.847-0.212 0.227-0.531 0.343-0.953 0.343-0.342 0-0.667-0.106-0.974-0.307-0.307-0.198-0.547-0.477-0.721-0.813-0.185-0.438-0.284-1.213-0.284-2.323" fill="#fff"/>
<path d="m389.97 30.134c-2e-3 5e-3 -2e-3 0.01-2e-3 0.018 0-8e-3 0-0.013 2e-3 -0.018" fill="#fff"/>
<path d="m390.1 29.305h0.00299c-0.05 0.236-0.088 0.471-0.119 0.702 0.031-0.233 0.069-0.469 0.116-0.702" fill="#fff"/>
<path d="m390.96 26.898c-6e-3 0.01-0.011 0.021-0.017 0.033 6e-3 -0.012 0.011-0.023 0.017-0.033" fill="#fff"/>
<path d="m390.87 27.059c-0.022 0.044-0.044 0.09-0.065 0.134 0.021-0.047 0.043-0.09 0.065-0.134" fill="#fff"/>
<path d="m390.34 28.378c0.127-0.4 0.28-0.788 0.457-1.158-0.18 0.378-0.33 0.766-0.454 1.158h-3e-3z" fill="#fff"/>
<path d="m400 40.07c0.501 0 0.871-0.04 1.295-0.111l0.12 0.762s-1.171 0.361-2.71 0.235l-0.122 0.415c0.47899 0.1 0.838 0.526 0.838 1.034 0 0.582-0.474 1.054-1.057 1.054-0.58301 0-1.055-0.472-1.055-1.054 0-0.508 0.358-0.934 0.836-1.034l0.133-0.463c-1.634-0.225-2.935-0.862-2.935-0.862l0.231-0.705c0.98799 0.329 1.846 0.529 2.624 0.613 0.761 0.081 1.335 0.116 1.802 0.116" fill="#fff"/>
<path d="m390.94 36.212l6e-3 8e-3c0.038 0.05 0.076 0.097 0.113 0.142l-0.313 0.226-0.488 0.356c-0.027-0.038-0.795-0.744-1.401-2.047-0.025 0.041-0.056 0.081-0.09 0.119-0.181 0.198-0.435 0.3-0.758 0.294h-0.015c-0.2 0-0.337 0.066-0.427 0.147 0.09 0.113 0.144 0.256 0.144 0.413 0 0.368-0.3 0.669-0.67 0.669-0.369 0-0.668-0.301-0.668-0.669 0-0.37 0.299-0.669 0.668-0.669 0.058 0 0.113 0.01 0.167 0.021 0.165-0.183 0.425-0.342 0.808-0.334 0.196 2e-3 0.341-0.049 0.437-0.155 0.111-0.122 0.149-0.296 0.16-0.428-1e-3 -2e-3 -1e-3 -5e-3 -3e-3 -5e-3 -0.436-1.19-0.311-2.67-0.311-2.67l1.057-0.042c0.022 0.539 0.099 1.482 0.372 2.23 0.526 1.45 1.185 2.356 1.212 2.394" fill="#fff"/>
<path d="m409.2 39.186c-0.368 0-0.669-0.299-0.669-0.669 0-0.058 9e-3 -0.112 0.023-0.165-0.183-0.166-0.342-0.428-0.336-0.811 2e-3 -0.197-0.048-0.339-0.155-0.436-0.085-0.075-0.191-0.115-0.296-0.141-0.787 1.103-1.756 1.776-1.756 1.776l-0.758-0.814c0.573-0.521 1.159-1.175 1.728-1.99 0.394-0.564 0.799-1.29 1.136-2.015l1.024 0.487s-0.467 1.155-1.126 2.191c0.115 0.04 0.23 0.103 0.331 0.192 0.201 0.181 0.299 0.437 0.293 0.758-2e-3 0.208 0.067 0.349 0.149 0.442 0.114-0.087 0.257-0.143 0.412-0.143 0.371 0 0.67 0.3 0.67 0.669 0 0.37-0.299 0.669-0.67 0.669" fill="#fff"/>
<path d="m406.55 29.984c-1.409-0.687-3.728-1.594-6.781-2.02-1.198-0.166-2.36-0.227-3.429-0.227-1.39 0-2.619 0.103-3.562 0.223-1.076 0.135-1.917 0.301-2.432 0.417 0.123-0.391 0.273-0.78 0.454-1.158 3e-3 -9e-3 7e-3 -0.02 0.012-0.027 0.022-0.044 0.043-0.09 0.066-0.134 0.021-0.044 0.043-0.087 0.065-0.127 6e-3 -0.011 0.011-0.023 0.017-0.033 0.302-0.57 0.666-1.095 1.08-1.549 1.44-1.575 2.907-1.824 2.921-1.826l0.023-3e-3 0.022-8e-3c0.013-5e-3 1.314-0.424 3.291-0.424 1.945 0 3.855 0.392 5.674 1.166 1.348 0.69 2.622 1.737 3.254 2.67 0.488 0.723 0.841 1.494 1.05 2.294 0.111 0.426 0.199 1.108 0.147 1.825-0.396-0.266-1.023-0.646-1.872-1.059" fill="#fff"/>
<path d="m395.42 36.614c1.557 0 2.817-1.262 2.817-2.817 0-1.556-1.26-2.815-2.817-2.815-1.555 0-2.816 1.259-2.816 2.815 0 1.555 1.261 2.817 2.816 2.817m8.242-0.069c0.961 0 1.743-0.781 1.743-1.743s-0.782-1.745-1.743-1.745c-0.962 0-1.742 0.783-1.742 1.745s0.78 1.743 1.742 1.743m-12.27-0.667c-0.041-0.06-0.652-0.925-1.135-2.253-0.362-0.995-0.346-2.444-0.346-2.46v-3e-3c0-0.34 0.019-0.677 0.057-1.011 0-8e-3 0-0.012 2e-3 -0.017 4e-3 -0.043 0.011-0.084 0.015-0.127 0.03-0.232 0.069-0.466 0.119-0.702 0.7-0.178 4.878-1.153 9.548-0.502 2.927 0.407 5.149 1.272 6.499 1.926 1.121 0.544 1.842 1.036 2.12 1.239-0.277 1.028-1.042 2.64-1.743 3.646-2.005 2.865-4.167 3.601-5.277 3.783-0.424 0.07-0.763 0.11-1.244 0.11-0.447 0-1.002-0.036-1.743-0.115-0.743-0.077-1.572-0.272-2.532-0.595-1.348-0.451-2.567-1.16-3.527-2.048l-0.033-0.03c-0.142-0.131-0.439-0.407-0.78-0.841" fill="#fff"/>
</g>
<path d="m384.24 132.61c-6.0594-31.863-32.19-55.829-63.509-55.829-4.0479 0-8.0019 0.4185-11.844 1.1848-15.418-36.287-59.348-41.508-98.761-41.508-42.832 0-56.7 20.784-82.349 51.198-5.4308-1.8383-11.209-2.834-17.201-2.834-31.692 0-57.384 27.726-57.384 61.928 0 0.45481 0.02302 0.90198 0.03187 1.3549-2.1868-0.4357-4.4339-0.69368-6.7376-0.69368-20.409 0-36.955 17.856-36.955 39.882 0 22.026 16.546 39.882 36.955 39.882h342.8c24.284 0 43.969-21.246 43.969-47.451 0-26.207-19.685-47.451-43.969-47.451" fill="#fff" stroke="null"/>
</g>
</svg>
