<svg width="459.6653" height="255.6667" xmlns="http://www.w3.org/2000/svg">
 <metadata id="metadata8">image/svg+xml</metadata>
 <defs>
  <clipPath id="clipPath20" clipPathUnits="userSpaceOnUse">
   <path id="path18" d="m-1.49999,832.99971l800,0l0,-800l-800,0l0,800z"/>
  </clipPath>
  <clipPath id="clipPath124" clipPathUnits="userSpaceOnUse">
   <path id="path122" d="m0,800l800,0l0,-800l-800,0l0,800z"/>
  </clipPath>
 </defs>
 <g>
  <title>background</title>
  <rect x="-1" y="-1" width="461.6653" height="257.6667" id="canvas_background" fill="none"/>
 </g>
 <g>
  <title>Layer 1</title>
  <g clip-path="url(#clipPath124)" id="g120" transform="matrix(1.3333333,0,0,-1.3333333,0,1066.6667) ">
   <g id="g126">
    <path id="path128" d="m280.92349,29.5234c0,-0.703 0.109,-1.301 0.328,-1.795c0.218,-0.494 0.517,-0.866 0.897,-1.115c0.38,-0.251 0.795,-0.377 1.244,-0.377c0.456,0 0.872,0.119 1.25,0.357c0.376,0.237 0.677,0.602 0.902,1.091c0.225,0.491 0.337,1.106 0.337,1.839c0,0.69 -0.112,1.284 -0.337,1.782c-0.225,0.496 -0.529,0.876 -0.912,1.14c-0.383,0.262 -0.803,0.392 -1.258,0.392c-0.475,0 -0.899,-0.134 -1.273,-0.403c-0.374,-0.268 -0.663,-0.654 -0.869,-1.158c-0.206,-0.504 -0.309,-1.088 -0.309,-1.753m5.101,-3.809l0,0.257c-0.349,-0.398 -0.692,-0.723 -1.031,-0.972c-0.339,-0.251 -0.706,-0.442 -1.102,-0.571c-0.396,-0.132 -0.827,-0.195 -1.296,-0.195c-0.621,0 -1.196,0.131 -1.725,0.394c-0.528,0.262 -0.986,0.638 -1.371,1.125c-0.388,0.488 -0.68,1.06 -0.879,1.719c-0.2,0.659 -0.3,1.371 -0.3,2.137c0,1.621 0.396,2.886 1.188,3.791c0.791,0.904 1.833,1.357 3.125,1.357c0.747,0 1.377,-0.129 1.89,-0.383c0.513,-0.257 1.013,-0.653 1.501,-1.183l0,3.827c0,0.532 0.105,0.934 0.318,1.206c0.211,0.273 0.514,0.408 0.907,0.408c0.392,0 0.694,-0.125 0.906,-0.375c0.213,-0.251 0.319,-0.618 0.319,-1.106l0,-11.436c0,-0.494 -0.114,-0.864 -0.342,-1.111c-0.228,-0.246 -0.522,-0.37 -0.883,-0.37c-0.355,0 -0.648,0.128 -0.879,0.384c-0.231,0.258 -0.346,0.623 -0.346,1.097" fill-rule="nonzero" fill="#ffffff"/>
   </g>
   <g id="g130">
    <path id="path132" d="m292.38641,30.3398l4.702,0c-0.063,0.887 -0.304,1.551 -0.718,1.99c-0.415,0.441 -0.96,0.66 -1.638,0.66c-0.646,0 -1.177,-0.222 -1.591,-0.668c-0.415,-0.447 -0.666,-1.108 -0.755,-1.982m5.071,-1.473l-5.071,0c0.006,-0.588 0.124,-1.107 0.356,-1.556c0.231,-0.45 0.539,-0.789 0.921,-1.017c0.384,-0.228 0.806,-0.341 1.268,-0.341c0.31,0 0.594,0.035 0.85,0.108c0.257,0.074 0.505,0.186 0.747,0.343c0.24,0.154 0.461,0.321 0.664,0.498c0.202,0.178 0.464,0.42 0.788,0.723c0.133,0.113 0.323,0.171 0.571,0.171c0.266,0 0.48,-0.074 0.644,-0.22c0.165,-0.146 0.249,-0.35 0.249,-0.617c0,-0.234 -0.093,-0.507 -0.276,-0.821c-0.185,-0.314 -0.462,-0.614 -0.831,-0.902c-0.372,-0.289 -0.836,-0.527 -1.397,-0.717c-0.56,-0.191 -1.204,-0.285 -1.933,-0.285c-1.665,0 -2.96,0.475 -3.884,1.424c-0.925,0.95 -1.387,2.239 -1.387,3.866c0,0.766 0.114,1.477 0.342,2.132c0.228,0.656 0.561,1.217 0.997,1.686c0.437,0.469 0.975,0.827 1.615,1.078c0.639,0.25 1.349,0.374 2.128,0.374c1.012,0 1.881,-0.212 2.606,-0.64c0.726,-0.427 1.269,-0.98 1.629,-1.657c0.36,-0.677 0.542,-1.369 0.542,-2.07c0,-0.653 -0.187,-1.075 -0.56,-1.27c-0.373,-0.192 -0.9,-0.29 -1.578,-0.29" fill-rule="nonzero" fill="#ffffff"/>
   </g>
   <g id="g134">
    <path id="path136" d="m309.27261,27.625c0,-0.716 -0.173,-1.329 -0.523,-1.839c-0.347,-0.51 -0.862,-0.896 -1.543,-1.159c-0.68,-0.263 -1.508,-0.394 -2.483,-0.394c-0.931,0 -1.729,0.143 -2.394,0.428c-0.664,0.284 -1.156,0.642 -1.472,1.068c-0.317,0.428 -0.475,0.856 -0.475,1.288c0,0.285 0.101,0.528 0.304,0.73c0.203,0.202 0.459,0.304 0.77,0.304c0.272,0 0.48,-0.067 0.626,-0.199c0.146,-0.133 0.286,-0.321 0.417,-0.56c0.267,-0.464 0.586,-0.807 0.956,-1.036c0.37,-0.228 0.875,-0.342 1.515,-0.342c0.519,0 0.945,0.116 1.278,0.347c0.332,0.232 0.498,0.496 0.498,0.794c0,0.456 -0.172,0.787 -0.518,0.996c-0.345,0.209 -0.914,0.409 -1.705,0.599c-0.893,0.221 -1.619,0.455 -2.18,0.699c-0.56,0.242 -1.008,0.564 -1.344,0.963c-0.335,0.399 -0.503,0.89 -0.503,1.472c0,0.519 0.155,1.01 0.465,1.473c0.311,0.461 0.768,0.83 1.374,1.105c0.603,0.277 1.333,0.414 2.188,0.414c0.671,0 1.275,-0.069 1.809,-0.21c0.536,-0.137 0.983,-0.326 1.34,-0.56c0.358,-0.233 0.63,-0.493 0.816,-0.777c0.187,-0.286 0.28,-0.564 0.28,-0.837c0,-0.297 -0.1,-0.541 -0.298,-0.732c-0.2,-0.188 -0.483,-0.285 -0.851,-0.285c-0.266,0 -0.492,0.076 -0.679,0.23c-0.186,0.151 -0.4,0.378 -0.641,0.682c-0.196,0.253 -0.426,0.456 -0.693,0.609c-0.266,0.152 -0.627,0.227 -1.083,0.227c-0.469,0 -0.858,-0.099 -1.168,-0.3c-0.31,-0.198 -0.465,-0.446 -0.465,-0.744c0,-0.273 0.113,-0.496 0.341,-0.67c0.229,-0.175 0.535,-0.319 0.922,-0.432c0.387,-0.114 0.917,-0.252 1.596,-0.417c0.803,-0.198 1.46,-0.432 1.97,-0.704c0.509,-0.271 0.896,-0.593 1.16,-0.964c0.262,-0.371 0.393,-0.792 0.393,-1.267" fill-rule="nonzero" fill="#ffffff"/>
   </g>
   <g id="g138">
    <path id="path140" d="m313.20419,33.3037l0,-7.493c0,-0.52 -0.124,-0.913 -0.371,-1.179c-0.247,-0.266 -0.56,-0.398 -0.94,-0.398c-0.38,0 -0.689,0.135 -0.926,0.408c-0.238,0.272 -0.356,0.662 -0.356,1.169l0,7.418c0,0.512 0.118,0.898 0.356,1.158c0.237,0.26 0.546,0.39 0.926,0.39c0.38,0 0.693,-0.13 0.94,-0.39c0.247,-0.26 0.371,-0.621 0.371,-1.083m-1.283,2.678c-0.36,0 -0.669,0.111 -0.925,0.333c-0.257,0.22 -0.385,0.534 -0.385,0.94c0,0.368 0.131,0.669 0.394,0.907c0.263,0.239 0.569,0.357 0.916,0.357c0.336,0 0.634,-0.108 0.893,-0.323c0.26,-0.216 0.39,-0.529 0.39,-0.941c0,-0.399 -0.127,-0.711 -0.381,-0.935c-0.253,-0.225 -0.553,-0.338 -0.902,-0.338" fill-rule="nonzero" fill="#ffffff"/>
   </g>
   <g id="g142">
    <path id="path144" d="m317.0499,29.5898c0,-1.051 0.229,-1.846 0.688,-2.384c0.459,-0.539 1.053,-0.807 1.781,-0.807c0.43,0 0.837,0.116 1.22,0.346c0.384,0.232 0.695,0.58 0.937,1.045c0.239,0.466 0.36,1.03 0.36,1.696c0,1.056 -0.232,1.88 -0.698,2.468c-0.466,0.589 -1.078,0.884 -1.838,0.884c-0.742,0 -1.335,-0.282 -1.781,-0.846c-0.446,-0.562 -0.669,-1.364 -0.669,-2.402m7.513,3.286l0,-7.531c0,-0.861 -0.093,-1.603 -0.277,-2.224c-0.182,-0.619 -0.477,-1.133 -0.882,-1.538c-0.406,-0.404 -0.936,-0.706 -1.591,-0.901c-0.655,-0.197 -1.47,-0.295 -2.446,-0.295c-0.893,0 -1.691,0.125 -2.394,0.375c-0.702,0.251 -1.243,0.573 -1.624,0.969c-0.379,0.395 -0.57,0.802 -0.57,1.22c0,0.317 0.108,0.576 0.324,0.774c0.215,0.2 0.475,0.3 0.778,0.3c0.38,0 0.713,-0.168 0.998,-0.503c0.138,-0.171 0.282,-0.345 0.431,-0.519c0.149,-0.175 0.315,-0.323 0.494,-0.447c0.181,-0.122 0.398,-0.214 0.651,-0.275c0.253,-0.058 0.545,-0.089 0.874,-0.089c0.671,0 1.192,0.092 1.563,0.28c0.37,0.186 0.63,0.448 0.779,0.784c0.149,0.334 0.236,0.693 0.261,1.077c0.025,0.384 0.044,0.999 0.057,1.849c-0.4,-0.559 -0.859,-0.984 -1.383,-1.275c-0.522,-0.291 -1.144,-0.436 -1.866,-0.436c-0.867,0 -1.625,0.222 -2.275,0.665c-0.648,0.443 -1.147,1.063 -1.495,1.861c-0.349,0.799 -0.522,1.719 -0.522,2.764c0,0.778 0.105,1.482 0.317,2.108c0.213,0.628 0.515,1.157 0.908,1.587c0.392,0.431 0.845,0.755 1.357,0.974c0.513,0.218 1.077,0.327 1.691,0.327c0.734,0 1.371,-0.142 1.91,-0.422c0.537,-0.283 1.038,-0.724 1.5,-1.326l0,0.352c0,0.45 0.11,0.797 0.332,1.045c0.222,0.246 0.507,0.371 0.856,0.371c0.5,0 0.832,-0.164 0.996,-0.49c0.165,-0.326 0.248,-0.797 0.248,-1.411" fill-rule="nonzero" fill="#ffffff"/>
   </g>
   <g id="g146">
    <path id="path148" d="m328.68369,33.3418l0,-0.313c0.455,0.601 0.954,1.043 1.496,1.325c0.541,0.281 1.163,0.423 1.86599,0.423c0.68401,0 1.29501,-0.15 1.83301,-0.448c0.538,-0.298 0.94099,-0.718 1.206,-1.261c0.172,-0.318 0.282,-0.661 0.332,-1.027c0.051,-0.368 0.078,-0.836 0.078,-1.406l0,-4.824c0,-0.52 -0.12001,-0.913 -0.35701,-1.179c-0.238,-0.266 -0.546,-0.398 -0.926,-0.398c-0.387,0 -0.7,0.135 -0.94099,0.408c-0.241,0.272 -0.36,0.662 -0.36,1.169l0,4.321c0,0.855 -0.12001,1.509 -0.35701,1.961c-0.238,0.452 -0.71,0.68 -1.42,0.68c-0.462,0 -0.883,-0.138 -1.263,-0.413c-0.38,-0.277 -0.659,-0.656 -0.836,-1.136c-0.126,-0.387 -0.19,-1.108 -0.19,-2.165l0,-3.248c0,-0.526 -0.122,-0.921 -0.365,-1.184c-0.244,-0.263 -0.559,-0.393 -0.945,-0.393c-0.374,0 -0.681,0.135 -0.922,0.408c-0.24,0.272 -0.361,0.662 -0.361,1.169l0,7.493c0,0.494 0.108,0.863 0.323,1.107c0.216,0.243 0.51,0.366 0.883,0.366c0.229,0 0.435,-0.054 0.619,-0.163c0.182,-0.108 0.33,-0.269 0.441,-0.483c0.111,-0.216 0.166,-0.479 0.166,-0.789" fill-rule="nonzero" fill="#ffffff"/>
   </g>
   <g id="g150">
    <path id="path152" d="m339.38681,30.3398l4.701,0c-0.063,0.887 -0.302,1.551 -0.717,1.99c-0.415,0.441 -0.961,0.66 -1.638,0.66c-0.646,0 -1.177,-0.222 -1.592,-0.668c-0.415,-0.447 -0.665,-1.108 -0.754,-1.982m5.071,-1.473l-5.071,0c0.007,-0.588 0.125,-1.107 0.356,-1.556c0.231,-0.45 0.538,-0.789 0.922,-1.017c0.382,-0.228 0.805,-0.341 1.267,-0.341c0.31,0 0.594,0.035 0.851,0.108c0.255,0.074 0.504,0.186 0.746,0.343c0.239,0.154 0.461,0.321 0.665,0.498c0.201,0.178 0.464,0.42 0.787,0.723c0.133,0.113 0.323,0.171 0.57,0.171c0.266,0 0.482,-0.074 0.646,-0.22c0.165,-0.146 0.247,-0.35 0.247,-0.617c0,-0.234 -0.092,-0.507 -0.276,-0.821c-0.184,-0.314 -0.461,-0.614 -0.831,-0.902c-0.371,-0.289 -0.835,-0.527 -1.396,-0.717c-0.56,-0.191 -1.205,-0.285 -1.933,-0.285c-1.665,0 -2.96,0.475 -3.885,1.424c-0.924,0.95 -1.386,2.239 -1.386,3.866c0,0.766 0.114,1.477 0.341,2.132c0.228,0.656 0.562,1.217 0.998,1.686c0.437,0.469 0.976,0.827 1.615,1.078c0.639,0.25 1.349,0.374 2.128,0.374c1.012,0 1.88,-0.212 2.606,-0.64c0.725,-0.427 1.268,-0.98 1.629,-1.657c0.361,-0.677 0.542,-1.369 0.542,-2.07c0,-0.653 -0.187,-1.075 -0.561,-1.27c-0.373,-0.192 -0.898,-0.29 -1.577,-0.29" fill-rule="nonzero" fill="#ffffff"/>
   </g>
   <g id="g154">
    <path id="path156" d="m349.92831,29.5234c0,-0.703 0.108,-1.301 0.327,-1.795c0.219,-0.494 0.518,-0.866 0.899,-1.115c0.379,-0.251 0.794,-0.377 1.243,-0.377c0.456,0 0.873,0.119 1.249,0.357c0.377,0.237 0.678,0.602 0.902,1.091c0.225,0.491 0.338,1.106 0.338,1.839c0,0.69 -0.113,1.284 -0.338,1.782c-0.224,0.496 -0.528,0.876 -0.911,1.14c-0.384,0.262 -0.803,0.392 -1.259,0.392c-0.474,0 -0.899,-0.134 -1.273,-0.403c-0.373,-0.268 -0.663,-0.654 -0.869,-1.158c-0.206,-0.504 -0.308,-1.088 -0.308,-1.753m5.1,-3.809l0,0.257c-0.348,-0.398 -0.692,-0.723 -1.031,-0.972c-0.339,-0.251 -0.705,-0.442 -1.101,-0.571c-0.395,-0.132 -0.828,-0.195 -1.296,-0.195c-0.622,0 -1.196,0.131 -1.724,0.394c-0.529,0.262 -0.986,0.638 -1.373,1.125c-0.386,0.488 -0.679,1.06 -0.878,1.719c-0.2,0.659 -0.299,1.371 -0.299,2.137c0,1.621 0.395,2.886 1.187,3.791c0.791,0.904 1.833,1.357 3.125,1.357c0.747,0 1.377,-0.129 1.89,-0.383c0.512,-0.257 1.013,-0.653 1.5,-1.183l0,3.827c0,0.532 0.106,0.934 0.319,1.206c0.211,0.273 0.514,0.408 0.907,0.408c0.392,0 0.694,-0.125 0.907,-0.375c0.211,-0.251 0.318,-0.618 0.318,-1.106l0,-11.436c0,-0.494 -0.114,-0.864 -0.342,-1.111c-0.228,-0.246 -0.522,-0.37 -0.883,-0.37c-0.355,0 -0.648,0.128 -0.879,0.384c-0.232,0.258 -0.347,0.623 -0.347,1.097" fill-rule="nonzero" fill="#ffffff"/>
   </g>
   <g id="g158">
    <path id="path160" d="m365.7496,29.4473c0,-1.032 0.236,-1.824 0.708,-2.378c0.471,-0.555 1.09,-0.833 1.856,-0.833c0.652,0 1.215,0.283 1.686,0.851c0.472,0.567 0.708,1.379 0.708,2.436c0,0.684 -0.098,1.274 -0.294,1.767c-0.197,0.494 -0.475,0.876 -0.836,1.144c-0.361,0.269 -0.783,0.404 -1.264,0.404c-0.493,0 -0.934,-0.135 -1.32,-0.404c-0.386,-0.268 -0.69,-0.658 -0.912,-1.168c-0.221,-0.508 -0.332,-1.116 -0.332,-1.819m-0.124,7.703l0,-3.96c0.488,0.506 0.985,0.895 1.492,1.163c0.506,0.269 1.133,0.404 1.881,0.404c0.861,0 1.615,-0.205 2.265,-0.612c0.648,-0.41 1.152,-1.002 1.51,-1.777c0.357,-0.775 0.537,-1.695 0.537,-2.76c0,-0.785 -0.1,-1.504 -0.299,-2.16c-0.2,-0.655 -0.49,-1.224 -0.869,-1.704c-0.381,-0.482 -0.841,-0.855 -1.382,-1.117c-0.542,-0.263 -1.139,-0.394 -1.791,-0.394c-0.399,0 -0.775,0.047 -1.125,0.143c-0.352,0.094 -0.652,0.218 -0.898,0.375c-0.246,0.154 -0.457,0.314 -0.632,0.479c-0.174,0.164 -0.404,0.412 -0.689,0.741l0,-0.256c0,-0.488 -0.117,-0.857 -0.351,-1.108c-0.233,-0.25 -0.531,-0.374 -0.893,-0.374c-0.367,0 -0.66,0.124 -0.878,0.374c-0.219,0.251 -0.328,0.62 -0.328,1.108l0,11.322c0,0.525 0.106,0.923 0.318,1.191c0.212,0.269 0.509,0.404 0.888,0.404c0.4,0 0.706,-0.128 0.922,-0.384c0.215,-0.258 0.322,-0.622 0.322,-1.098" fill-rule="nonzero" fill="#ffffff"/>
   </g>
   <g id="g162">
    <path id="path164" d="m376.672,23.9101l0.237,0.58l-3.191,8.035c-0.196,0.461 -0.295,0.798 -0.295,1.007c0,0.222 0.058,0.427 0.171,0.616c0.115,0.191 0.271,0.343 0.47,0.456c0.2,0.116 0.407,0.172 0.623,0.172c0.373,0 0.654,-0.119 0.845,-0.356c0.191,-0.237 0.358,-0.577 0.503,-1.021l2.195,-6.382l2.08,5.936c0.164,0.48 0.313,0.857 0.446,1.13c0.133,0.272 0.273,0.456 0.422,0.55c0.149,0.095 0.36,0.143 0.632,0.143c0.197,0 0.385,-0.051 0.566,-0.157c0.18,-0.104 0.319,-0.245 0.417,-0.423c0.098,-0.177 0.148,-0.363 0.148,-0.559c-0.026,-0.12 -0.066,-0.291 -0.124,-0.514c-0.058,-0.221 -0.126,-0.447 -0.209,-0.674l-3.381,-8.852c-0.292,-0.779 -0.577,-1.389 -0.855,-1.832c-0.279,-0.444 -0.647,-0.786 -1.107,-1.022c-0.459,-0.238 -1.078,-0.356 -1.857,-0.356c-0.759,0 -1.329,0.082 -1.708,0.246c-0.382,0.166 -0.571,0.466 -0.571,0.903c0,0.297 0.09,0.527 0.271,0.688c0.18,0.162 0.448,0.244 0.802,0.244c0.139,0 0.276,-0.02 0.409,-0.059c0.164,-0.037 0.307,-0.057 0.427,-0.057c0.297,0 0.532,0.044 0.703,0.134c0.171,0.088 0.324,0.241 0.461,0.461c0.135,0.217 0.293,0.539 0.47,0.963" fill-rule="nonzero" fill="#ffffff"/>
   </g>
   <g id="g166">
    <path id="path168" d="m414.2348,34.5517l0.618,0l0,0.778c0,0.815 0.1,1.457 0.307,1.938c0.204,0.478 0.555,0.826 1.047,1.045c0.49,0.217 1.163,0.326 2.016,0.326c1.52,0 2.273,-0.367 2.273,-1.114c0,-0.239 -0.079,-0.445 -0.24,-0.616c-0.155,-0.168 -0.343,-0.255 -0.558,-0.255c-0.1,0 -0.278,0.018 -0.527,0.059c-0.238,0.033 -0.453,0.056 -0.624,0.056c-0.467,0 -0.766,-0.141 -0.905,-0.415c-0.127,-0.276 -0.195,-0.669 -0.195,-1.185l0,-0.617l0.633,0c0.991,0 1.481,-0.297 1.481,-0.895c0,-0.419 -0.127,-0.691 -0.392,-0.805c-0.262,-0.114 -0.624,-0.171 -1.089,-0.171l-0.633,0l0,-6.871c0,-0.511 -0.12,-0.901 -0.369,-1.168c-0.241,-0.273 -0.554,-0.406 -0.943,-0.406c-0.367,0 -0.671,0.133 -0.918,0.406c-0.244,0.267 -0.364,0.657 -0.364,1.168l0,6.871l-0.714,0c-0.388,0 -0.682,0.084 -0.893,0.262c-0.209,0.171 -0.315,0.399 -0.315,0.677c0,0.624 0.435,0.932 1.304,0.932" fill-rule="nonzero" fill="#ffffff"/>
   </g>
   <g id="g170">
    <path id="path172" d="m422.72409,27.9775l0,-2.168c0,-0.523 -0.133,-0.919 -0.374,-1.18c-0.247,-0.265 -0.559,-0.394 -0.937,-0.394c-0.382,0 -0.688,0.131 -0.927,0.4c-0.237,0.264 -0.361,0.656 -0.361,1.174l0,7.223c0,1.166 0.42,1.749 1.261,1.749c0.434,0 0.743,-0.135 0.934,-0.409c0.189,-0.273 0.295,-0.673 0.317,-1.208c0.308,0.535 0.624,0.935 0.948,1.208c0.332,0.274 0.763,0.409 1.31,0.409c0.549,0 1.072,-0.135 1.585,-0.409c0.516,-0.273 0.771,-0.636 0.771,-1.084c0,-0.315 -0.11,-0.581 -0.326,-0.782c-0.22,-0.209 -0.454,-0.311 -0.706,-0.311c-0.099,0 -0.331,0.062 -0.692,0.179c-0.365,0.114 -0.689,0.173 -0.963,0.173c-0.38,0 -0.692,-0.102 -0.932,-0.298c-0.242,-0.205 -0.43,-0.497 -0.564,-0.886c-0.129,-0.395 -0.219,-0.866 -0.273,-1.405c-0.048,-0.542 -0.071,-1.203 -0.071,-1.981" fill-rule="nonzero" fill="#ffffff"/>
   </g>
   <g id="g174">
    <path id="path176" d="m429.5708,30.3447l4.701,0c-0.062,0.885 -0.298,1.55 -0.714,1.986c-0.418,0.443 -0.959,0.66 -1.64,0.66c-0.646,0 -1.177,-0.219 -1.592,-0.668c-0.414,-0.447 -0.668,-1.105 -0.755,-1.978m5.074,-1.475l-5.074,0c0.009,-0.588 0.124,-1.11 0.354,-1.558c0.236,-0.446 0.541,-0.786 0.925,-1.017c0.385,-0.227 0.804,-0.34 1.269,-0.34c0.31,0 0.593,0.034 0.849,0.112c0.254,0.069 0.505,0.185 0.746,0.34c0.242,0.153 0.46,0.319 0.664,0.5c0.202,0.175 0.466,0.417 0.79,0.719c0.134,0.114 0.324,0.174 0.568,0.174c0.269,0 0.481,-0.074 0.649,-0.222c0.166,-0.147 0.244,-0.35 0.244,-0.617c0,-0.235 -0.089,-0.508 -0.268,-0.819c-0.187,-0.317 -0.463,-0.616 -0.836,-0.906c-0.374,-0.286 -0.839,-0.528 -1.397,-0.714c-0.56,-0.191 -1.206,-0.286 -1.932,-0.286c-1.671,0 -2.964,0.472 -3.887,1.422c-0.924,0.952 -1.391,2.242 -1.391,3.868c0,0.766 0.117,1.478 0.347,2.134c0.225,0.659 0.558,1.216 0.999,1.688c0.436,0.471 0.97,0.828 1.613,1.078c0.637,0.249 1.346,0.374 2.128,0.374c1.01,0 1.88,-0.214 2.606,-0.645c0.724,-0.423 1.274,-0.977 1.629,-1.655c0.361,-0.68 0.542,-1.368 0.542,-2.074c0,-0.648 -0.189,-1.07 -0.562,-1.266c-0.373,-0.193 -0.897,-0.29 -1.575,-0.29" fill-rule="nonzero" fill="#ffffff"/>
   </g>
   <g id="g178">
    <path id="path180" d="m440.35889,30.3447l4.701,0c-0.063,0.885 -0.304,1.55 -0.715,1.986c-0.421,0.443 -0.962,0.66 -1.642,0.66c-0.646,0 -1.176,-0.219 -1.593,-0.668c-0.413,-0.447 -0.667,-1.105 -0.751,-1.978m5.073,-1.475l-5.073,0c0.006,-0.588 0.125,-1.11 0.355,-1.558c0.231,-0.446 0.538,-0.786 0.92,-1.017c0.383,-0.227 0.806,-0.34 1.272,-0.34c0.308,0 0.593,0.034 0.845,0.112c0.258,0.069 0.505,0.185 0.75,0.34c0.242,0.153 0.46,0.319 0.664,0.5c0.199,0.175 0.464,0.417 0.788,0.719c0.135,0.114 0.326,0.174 0.568,0.174c0.269,0 0.484,-0.074 0.65,-0.222c0.166,-0.147 0.241,-0.35 0.241,-0.617c0,-0.235 -0.087,-0.508 -0.274,-0.819c-0.176,-0.317 -0.455,-0.616 -0.83,-0.906c-0.37,-0.286 -0.84,-0.528 -1.395,-0.714c-0.558,-0.191 -1.208,-0.286 -1.935,-0.286c-1.667,0 -2.959,0.472 -3.887,1.422c-0.923,0.952 -1.388,2.242 -1.388,3.868c0,0.766 0.116,1.478 0.347,2.134c0.227,0.659 0.559,1.216 0.997,1.688c0.435,0.471 0.972,0.828 1.614,1.078c0.637,0.249 1.35,0.374 2.129,0.374c1.008,0 1.878,-0.214 2.613,-0.645c0.72,-0.423 1.266,-0.977 1.621,-1.655c0.359,-0.68 0.545,-1.368 0.545,-2.074c0,-0.648 -0.192,-1.07 -0.562,-1.266c-0.375,-0.193 -0.899,-0.29 -1.575,-0.29" fill-rule="nonzero" fill="#ffffff"/>
   </g>
   <g id="g182">
    <path id="path184" d="m456.1958,29.5547c0,0.684 -0.107,1.273 -0.315,1.763c-0.208,0.492 -0.499,0.867 -0.866,1.128c-0.367,0.262 -0.782,0.396 -1.232,0.396c-0.714,0 -1.319,-0.284 -1.809,-0.844c-0.492,-0.566 -0.739,-1.395 -0.739,-2.493c0,-1.026 0.244,-1.833 0.735,-2.406c0.488,-0.573 1.086,-0.858 1.813,-0.858c0.429,0 0.83,0.125 1.197,0.372c0.371,0.253 0.665,0.626 0.884,1.126c0.221,0.502 0.332,1.108 0.332,1.816m-5.084,3.768l0,-0.311c0.486,0.601 0.994,1.042 1.524,1.324c0.519,0.284 1.119,0.427 1.783,0.427c0.795,0 1.535,-0.208 2.207,-0.617c0.671,-0.414 1.198,-1.016 1.588,-1.807c0.39,-0.795 0.586,-1.729 0.586,-2.813c0,-0.796 -0.112,-1.532 -0.336,-2.201c-0.223,-0.668 -0.537,-1.227 -0.928,-1.68c-0.394,-0.45 -0.856,-0.802 -1.39,-1.046c-0.542,-0.241 -1.111,-0.363 -1.727,-0.363c-0.739,0 -1.365,0.148 -1.866,0.447c-0.503,0.292 -0.982,0.733 -1.441,1.306l0,-3.893c0,-1.136 -0.416,-1.71 -1.244,-1.71c-0.49,0 -0.809,0.146 -0.972,0.439c-0.151,0.299 -0.233,0.724 -0.233,1.291l0,11.194c0,0.495 0.106,0.859 0.32,1.107c0.215,0.24 0.512,0.365 0.885,0.365c0.369,0 0.666,-0.125 0.895,-0.375c0.236,-0.253 0.349,-0.61 0.349,-1.084" fill-rule="nonzero" fill="#ffffff"/>
   </g>
   <g id="g186">
    <path id="path188" d="m462.6958,33.3096l0,-7.502c0,-0.516 -0.124,-0.908 -0.37,-1.172c-0.25,-0.269 -0.561,-0.4 -0.941,-0.4c-0.381,0 -0.685,0.133 -0.928,0.406c-0.234,0.276 -0.356,0.665 -0.356,1.166l0,7.428c0,0.51 0.122,0.894 0.356,1.154c0.243,0.265 0.547,0.392 0.928,0.392c0.38,0 0.691,-0.127 0.941,-0.392c0.246,-0.26 0.37,-0.622 0.37,-1.08m-1.284,2.679c-0.363,0 -0.669,0.114 -0.923,0.335c-0.26,0.222 -0.388,0.532 -0.388,0.936c0,0.368 0.131,0.67 0.397,0.91c0.262,0.235 0.566,0.356 0.914,0.356c0.34,0 0.636,-0.107 0.893,-0.32c0.26,-0.218 0.391,-0.534 0.391,-0.946c0,-0.399 -0.127,-0.711 -0.378,-0.935c-0.254,-0.222 -0.555,-0.336 -0.906,-0.336" fill-rule="nonzero" fill="#ffffff"/>
   </g>
   <g id="g190">
    <path id="path192" d="m471.05521,25.4189l-2.284,3.766l-1.408,-1.328l0,-2.066c0,-0.499 -0.133,-0.882 -0.397,-1.149c-0.257,-0.273 -0.566,-0.407 -0.906,-0.407c-0.399,0 -0.715,0.131 -0.941,0.401c-0.226,0.263 -0.343,0.656 -0.343,1.174l0,11.063c0,0.573 0.114,1.011 0.331,1.314c0.222,0.304 0.545,0.452 0.953,0.452c0.399,0 0.713,-0.137 0.949,-0.411c0.234,-0.271 0.354,-0.674 0.354,-1.202l0,-6.293l2.916,3.062c0.362,0.376 0.632,0.641 0.827,0.778c0.189,0.139 0.419,0.208 0.689,0.208c0.326,0 0.594,-0.103 0.816,-0.308c0.211,-0.206 0.32,-0.466 0.32,-0.774c0,-0.379 -0.354,-0.888 -1.055,-1.521l-1.377,-1.263l2.659,-4.182c0.194,-0.314 0.339,-0.544 0.424,-0.707c0.084,-0.159 0.13,-0.319 0.13,-0.461c0,-0.414 -0.114,-0.735 -0.341,-0.976c-0.224,-0.236 -0.523,-0.354 -0.885,-0.354c-0.317,0 -0.564,0.082 -0.734,0.256c-0.17,0.173 -0.407,0.484 -0.697,0.928" fill-rule="nonzero" fill="#ffffff"/>
   </g>
   <g id="g194">
    <path id="path196" d="m476.69089,24.2353c-0.392,0 -0.728,0.126 -1.014,0.381c-0.284,0.249 -0.428,0.605 -0.428,1.064c0,0.386 0.137,0.719 0.41,0.995c0.274,0.28 0.607,0.419 1.008,0.419c0.397,0 0.735,-0.139 1.022,-0.412c0.279,-0.275 0.422,-0.612 0.422,-1.002c0,-0.452 -0.143,-0.807 -0.422,-1.059c-0.287,-0.26 -0.619,-0.386 -0.998,-0.386" fill-rule="nonzero" fill="#ffffff"/>
   </g>
   <g id="g198">
    <path id="path200" d="m489.58929,27.4453c0,-0.32 -0.097,-0.668 -0.291,-1.034c-0.191,-0.37 -0.488,-0.718 -0.886,-1.05c-0.394,-0.332 -0.891,-0.602 -1.495,-0.804c-0.6,-0.202 -1.28,-0.306 -2.03,-0.306c-1.607,0 -2.858,0.469 -3.758,1.401c-0.895,0.936 -1.346,2.189 -1.346,3.76c0,1.067 0.204,2.006 0.62,2.824c0.407,0.814 1.003,1.447 1.781,1.894c0.779,0.448 1.716,0.67 2.794,0.67c0.673,0 1.288,-0.098 1.852,-0.295c0.561,-0.196 1.032,-0.452 1.425,-0.759c0.387,-0.315 0.686,-0.644 0.89,-0.992c0.207,-0.352 0.307,-0.681 0.307,-0.988c0,-0.307 -0.113,-0.571 -0.342,-0.787c-0.236,-0.215 -0.516,-0.324 -0.839,-0.324c-0.219,0 -0.398,0.057 -0.541,0.166c-0.144,0.112 -0.305,0.29 -0.479,0.542c-0.317,0.478 -0.646,0.842 -0.996,1.079c-0.343,0.243 -0.78,0.362 -1.313,0.362c-0.762,0 -1.384,-0.297 -1.854,-0.897c-0.468,-0.596 -0.703,-1.42 -0.703,-2.454c0,-0.488 0.062,-0.94 0.183,-1.348c0.117,-0.407 0.291,-0.756 0.52,-1.044c0.23,-0.287 0.504,-0.505 0.826,-0.654c0.324,-0.153 0.681,-0.226 1.064,-0.226c0.521,0 0.966,0.12 1.337,0.361c0.376,0.241 0.702,0.607 0.986,1.102c0.158,0.291 0.327,0.518 0.509,0.684c0.182,0.163 0.409,0.249 0.675,0.249c0.317,0 0.581,-0.123 0.787,-0.362c0.211,-0.241 0.317,-0.499 0.317,-0.77" fill-rule="nonzero" fill="#ffffff"/>
   </g>
   <g id="g202">
    <path id="path204" d="m498.17621,29.5058c0,1.059 -0.234,1.881 -0.698,2.469c-0.463,0.595 -1.09,0.888 -1.874,0.888c-0.508,0 -0.955,-0.132 -1.343,-0.394c-0.387,-0.262 -0.681,-0.649 -0.89,-1.164c-0.209,-0.514 -0.315,-1.113 -0.315,-1.799c0,-0.679 0.102,-1.268 0.309,-1.773c0.208,-0.511 0.502,-0.898 0.886,-1.166c0.386,-0.267 0.835,-0.405 1.353,-0.405c0.784,0 1.411,0.296 1.874,0.892c0.464,0.591 0.698,1.411 0.698,2.452m2.604,0c0,-0.77 -0.123,-1.484 -0.356,-2.139c-0.247,-0.652 -0.592,-1.213 -1.05,-1.678c-0.455,-0.469 -1.002,-0.828 -1.632,-1.08c-0.639,-0.248 -1.349,-0.375 -2.138,-0.375c-0.785,0 -1.493,0.127 -2.121,0.382c-0.623,0.249 -1.171,0.615 -1.626,1.082c-0.461,0.477 -0.809,1.035 -1.052,1.677c-0.23,0.644 -0.351,1.355 -0.351,2.131c0,0.786 0.124,1.506 0.359,2.158c0.242,0.655 0.589,1.212 1.039,1.673c0.451,0.462 0.993,0.817 1.631,1.07c0.643,0.249 1.349,0.374 2.121,0.374c0.784,0 1.498,-0.125 2.138,-0.381c0.638,-0.251 1.183,-0.615 1.644,-1.08c0.458,-0.474 0.803,-1.029 1.04,-1.671c0.233,-0.652 0.354,-1.361 0.354,-2.143" fill-rule="nonzero" fill="#ffffff"/>
   </g>
   <g id="g206">
    <path id="path208" d="m510.67139,29.3154l0,-3.446c0,-0.547 -0.12,-0.951 -0.369,-1.228c-0.25,-0.272 -0.571,-0.408 -0.978,-0.408c-0.392,0 -0.714,0.136 -0.951,0.408c-0.247,0.277 -0.372,0.681 -0.372,1.228l0,4.131c0,0.653 -0.02,1.162 -0.063,1.524c-0.046,0.354 -0.168,0.655 -0.363,0.883c-0.196,0.235 -0.508,0.351 -0.93,0.351c-0.851,0 -1.408,-0.29 -1.677,-0.88c-0.268,-0.577 -0.406,-1.414 -0.406,-2.507l0,-3.502c0,-0.538 -0.123,-0.947 -0.362,-1.224c-0.249,-0.273 -0.567,-0.412 -0.965,-0.412c-0.395,0 -0.716,0.139 -0.966,0.412c-0.252,0.277 -0.376,0.686 -0.376,1.224l0,7.419c0,0.489 0.111,0.86 0.335,1.111c0.229,0.257 0.526,0.382 0.889,0.382c0.357,0 0.652,-0.123 0.892,-0.356c0.236,-0.238 0.354,-0.566 0.354,-0.984l0,-0.245c0.454,0.535 0.935,0.931 1.445,1.181c0.516,0.259 1.082,0.385 1.713,0.385c0.651,0 1.211,-0.131 1.677,-0.389c0.47,-0.261 0.854,-0.656 1.161,-1.177c0.439,0.528 0.909,0.923 1.41,1.181c0.5,0.256 1.052,0.385 1.662,0.385c0.706,0 1.321,-0.142 1.834,-0.419c0.51,-0.278 0.892,-0.679 1.147,-1.195c0.221,-0.473 0.33,-1.21 0.33,-2.217l0,-5.062c0,-0.547 -0.122,-0.951 -0.367,-1.228c-0.246,-0.272 -0.575,-0.408 -0.979,-0.408c-0.395,0 -0.714,0.139 -0.965,0.412c-0.25,0.277 -0.376,0.686 -0.376,1.224l0,4.361c0,0.559 -0.024,1.003 -0.07,1.338c-0.046,0.337 -0.176,0.62 -0.382,0.847c-0.212,0.227 -0.531,0.343 -0.953,0.343c-0.342,0 -0.667,-0.106 -0.974,-0.307c-0.307,-0.198 -0.547,-0.477 -0.721,-0.813c-0.185,-0.438 -0.284,-1.213 -0.284,-2.323" fill-rule="nonzero" fill="#ffffff"/>
   </g>
   <g id="g210">
    <path id="path212" d="m389.9668,30.1338c-0.002,0.005 -0.002,0.01 -0.002,0.018c0,-0.008 0,-0.013 0.002,-0.018" fill-rule="nonzero" fill="#ffffff"/>
   </g>
   <g id="g214">
    <path id="path216" d="m390.0976,29.3047l0.00299,0c-0.05,0.236 -0.088,0.471 -0.119,0.702c0.031,-0.233 0.069,-0.469 0.116,-0.702" fill-rule="nonzero" fill="#ffffff"/>
   </g>
   <g id="g218">
    <path id="path220" d="m390.95599,26.8984c-0.006,0.01 -0.011,0.021 -0.017,0.033c0.006,-0.012 0.011,-0.023 0.017,-0.033" fill-rule="nonzero" fill="#ffffff"/>
   </g>
   <g id="g222">
    <path id="path224" d="m390.87399,27.0586c-0.022,0.044 -0.044,0.09 -0.065,0.134c0.021,-0.047 0.043,-0.09 0.065,-0.134" fill-rule="nonzero" fill="#ffffff"/>
   </g>
   <g id="g226">
    <path id="path228" d="m390.33881,28.3779c0.127,-0.4 0.28,-0.788 0.457,-1.158c-0.18,0.378 -0.33,0.766 -0.454,1.158l-0.003,0z" fill-rule="nonzero" fill="#ffffff"/>
   </g>
   <g id="g230">
    <path id="path232" d="m400.00439,40.0703c0.501,0 0.871,-0.04 1.29501,-0.111l0.12,0.762c0,0 -1.171,0.361 -2.71,0.235l-0.122,0.415c0.47899,0.1 0.838,0.526 0.838,1.034c0,0.582 -0.474,1.054 -1.057,1.054c-0.58301,0 -1.055,-0.472 -1.055,-1.054c0,-0.508 0.358,-0.934 0.836,-1.034l0.133,-0.463c-1.63401,-0.225 -2.935,-0.862 -2.935,-0.862l0.231,-0.705c0.98799,0.329 1.846,0.529 2.624,0.613c0.761,0.081 1.335,0.116 1.802,0.116" fill-rule="nonzero" fill="#ffffff"/>
   </g>
   <g id="g234">
    <path id="path236" d="m390.93649,36.2119l0.006,0.008c0.038,0.05 0.076,0.097 0.113,0.142l-0.313,0.226l-0.488,0.356c-0.027,-0.038 -0.795,-0.744 -1.401,-2.047c-0.025,0.041 -0.056,0.081 -0.09,0.119c-0.181,0.198 -0.435,0.3 -0.758,0.294l-0.015,0c-0.2,0 -0.337,0.066 -0.427,0.147c0.09,0.113 0.144,0.256 0.144,0.413c0,0.368 -0.3,0.669 -0.67,0.669c-0.369,0 -0.668,-0.301 -0.668,-0.669c0,-0.37 0.299,-0.669 0.668,-0.669c0.058,0 0.113,0.01 0.167,0.021c0.165,-0.183 0.425,-0.342 0.808,-0.334c0.196,0.002 0.341,-0.049 0.437,-0.155c0.111,-0.122 0.149,-0.296 0.16,-0.428c-0.001,-0.002 -0.001,-0.005 -0.003,-0.005c-0.436,-1.19 -0.311,-2.67 -0.311,-2.67l1.057,-0.042c0.022,0.539 0.099,1.482 0.372,2.23c0.526,1.45 1.185,2.356 1.212,2.394" fill-rule="nonzero" fill="#ffffff"/>
   </g>
   <g id="g238">
    <path id="path240" d="m409.20361,39.1865c-0.368,0 -0.669,-0.299 -0.669,-0.669c0,-0.058 0.009,-0.112 0.023,-0.165c-0.183,-0.166 -0.342,-0.428 -0.336,-0.811c0.002,-0.197 -0.048,-0.339 -0.155,-0.436c-0.085,-0.075 -0.191,-0.115 -0.296,-0.141c-0.787,1.103 -1.756,1.776 -1.756,1.776l-0.758,-0.814c0.573,-0.521 1.159,-1.175 1.728,-1.99c0.394,-0.564 0.799,-1.29 1.136,-2.015l1.024,0.487c0,0 -0.467,1.155 -1.126,2.191c0.115,0.04 0.23,0.103 0.331,0.192c0.201,0.181 0.299,0.437 0.293,0.758c-0.002,0.208 0.067,0.349 0.149,0.442c0.114,-0.087 0.257,-0.143 0.412,-0.143c0.371,0 0.67,0.3 0.67,0.669c0,0.37 -0.299,0.669 -0.67,0.669" fill-rule="nonzero" fill="#ffffff"/>
   </g>
   <g id="g242">
    <path id="path244" d="m406.54639,29.9844c-1.409,-0.687 -3.728,-1.594 -6.781,-2.02c-1.198,-0.166 -2.36,-0.227 -3.429,-0.227c-1.39,0 -2.619,0.103 -3.562,0.223c-1.076,0.135 -1.917,0.301 -2.432,0.417c0.123,-0.391 0.273,-0.78 0.454,-1.158c0.003,-0.009 0.007,-0.02 0.012,-0.027c0.022,-0.044 0.043,-0.09 0.066,-0.134c0.021,-0.044 0.043,-0.087 0.065,-0.127c0.006,-0.011 0.011,-0.023 0.017,-0.033c0.302,-0.57 0.666,-1.095 1.08,-1.549c1.44,-1.575 2.907,-1.824 2.921,-1.826l0.023,-0.003l0.022,-0.008c0.013,-0.005 1.314,-0.424 3.291,-0.424c1.945,0 3.855,0.392 5.674,1.166c1.348,0.69 2.622,1.737 3.254,2.67c0.488,0.723 0.841,1.494 1.05,2.294c0.111,0.426 0.199,1.108 0.147,1.825c-0.396,-0.266 -1.023,-0.646 -1.872,-1.059" fill-rule="nonzero" fill="#ffffff"/>
   </g>
   <g id="g246">
    <path id="path248" d="m395.41699,36.6142c1.557,0 2.817,-1.262 2.817,-2.817c0,-1.556 -1.26,-2.815 -2.817,-2.815c-1.555,0 -2.816,1.259 -2.816,2.815c0,1.555 1.261,2.817 2.816,2.817m8.242,-0.069c0.961,0 1.743,-0.781 1.743,-1.743c0,-0.962 -0.782,-1.745 -1.743,-1.745c-0.962,0 -1.742,0.783 -1.742,1.745c0,0.962 0.78,1.743 1.742,1.743m-12.27,-0.667c-0.041,-0.06 -0.652,-0.925 -1.135,-2.253c-0.362,-0.995 -0.346,-2.444 -0.346,-2.46l0,-0.003c0,-0.34 0.019,-0.677 0.057,-1.011c0,-0.008 0,-0.012 0.002,-0.017c0.004,-0.043 0.011,-0.084 0.015,-0.127c0.03,-0.232 0.069,-0.466 0.119,-0.702c0.7,-0.178 4.878,-1.153 9.548,-0.502c2.927,0.407 5.149,1.272 6.499,1.926c1.121,0.544 1.842,1.036 2.12,1.239c-0.277,1.028 -1.042,2.64 -1.743,3.646c-2.005,2.865 -4.167,3.601 -5.277,3.783c-0.424,0.07 -0.763,0.11 -1.244,0.11c-0.447,0 -1.002,-0.036 -1.743,-0.115c-0.743,-0.077 -1.572,-0.272 -2.532,-0.595c-1.348,-0.451 -2.567,-1.16 -3.527,-2.048l-0.033,-0.03c-0.142,-0.131 -0.439,-0.407 -0.78,-0.841" fill-rule="nonzero" fill="#ffffff"/>
   </g>
  </g>
  <path id="path52" d="m384.23699,132.60982c-6.05941,-31.86333 -32.18995,-55.82867 -63.50869,-55.82867c-4.04787,0 -8.00189,0.4185 -11.84436,1.1848c-15.41767,-36.28721 -59.34813,-41.50795 -98.76084,-41.50795c-42.83198,0 -56.69971,20.78397 -82.34852,51.19842c-5.4308,-1.83834 -11.20867,-2.83395 -17.20079,-2.83395c-31.69237,0 -57.38376,27.72611 -57.38376,61.92845c0,0.45481 0.02302,0.90198 0.03187,1.35487c-2.18684,-0.4357 -4.43388,-0.69368 -6.73759,-0.69368c-20.40934,0 -36.95495,17.85601 -36.95495,39.88172c0,22.02572 16.54561,39.88172 36.95495,39.88172l342.80454,0c24.28367,0 43.96878,-21.24604 43.96878,-47.45103c0,-26.20689 -19.68511,-47.45102 -43.96878,-47.45102" fill-rule="nonzero" fill="#ffffff" stroke="null"/>
 </g>
</svg>
